<?xml version="1.0" encoding="utf-8"?>
<!-- Generator: Adobe Illustrator 18.1.1, SVG Export Plug-In . SVG Version: 6.00 Build 0)  -->
<svg version="1.1" id="Layer_1" xmlns="http://www.w3.org/2000/svg" xmlns:xlink="http://www.w3.org/1999/xlink" x="0px" y="0px"
	 viewBox="0 0 629.7 179.1" enable-background="new 0 0 629.7 179.1" xml:space="preserve">
<g>
	<path fill="#010101" d="M235.1,122.3c-0.7,0.9-1.8,1.8-3.1,2.7c-1.3,0.9-2.8,1.7-4.5,2.3c-1.7,0.7-3.6,1.2-5.6,1.7
		c-2,0.4-4,0.6-6.1,0.6c-3.7,0-7.1-0.7-10.1-2c-3-1.3-5.5-3.2-7.7-5.6c-2.1-2.5-3.7-5.5-4.9-9.1c-1.1-3.6-1.7-7.7-1.7-12.3
		c0-4,0.5-7.6,1.6-10.9c1.1-3.3,2.7-6.1,4.7-8.5c2.1-2.4,4.6-4.2,7.5-5.6c3-1.3,6.4-2,10.1-2c2.9,0,5.7,0.5,8.2,1.5
		c2.6,1,4.8,2.5,6.7,4.5c1.9,2,3.4,4.5,4.5,7.4c1.1,2.9,1.6,6.3,1.6,10.1c0,0.8-0.3,1.2-1,1.2h-41.2c0,0.4-0.1,0.7-0.1,1.1
		c0,0.3,0,0.7,0,1.1c0,4.3,0.5,8.2,1.5,11.5c1,3.3,2.5,6.1,4.4,8.3c1.9,2.2,4.1,3.9,6.8,5.1c2.7,1.2,5.6,1.7,8.9,1.7
		c2.9,0,5.4-0.3,7.5-1c2.1-0.6,3.9-1.3,5.3-2.1c1.4-0.8,2.5-1.5,3.3-2.1c0.8-0.6,1.3-1,1.5-1c0.3,0,0.5,0.1,0.7,0.3L235.1,122.3z
		 M233.9,96.6c0-3.3-0.5-6.2-1.4-8.7c-0.9-2.6-2.2-4.7-3.9-6.5c-1.6-1.8-3.6-3.1-5.8-4c-2.2-0.9-4.7-1.4-7.3-1.4
		c-3.1,0-5.8,0.5-8.3,1.5c-2.4,1-4.5,2.4-6.3,4.2c-1.8,1.8-3.2,4-4.3,6.5c-1.1,2.5-1.8,5.4-2.1,8.5H233.9z"/>
	<path fill="#010101" d="M254.7,85.2c2.5-3.5,5.6-6.3,9.1-8.3c3.5-2.1,7.3-3.1,11.5-3.1c3,0,5.6,0.5,7.9,1.4s4.1,2.3,5.6,4
		c1.5,1.7,2.6,3.9,3.4,6.4c0.8,2.5,1.1,5.4,1.1,8.6V129h-2.9V94.3c0-2.8-0.3-5.4-0.9-7.6c-0.6-2.2-1.6-4.1-2.9-5.7
		c-1.3-1.6-2.9-2.8-4.9-3.6c-1.9-0.8-4.2-1.2-6.9-1.2c-4,0-7.6,1-11,3.1c-3.4,2.1-6.3,4.9-9,8.6V129h-2.9V74.7h1.4
		c0.7,0,1.1,0.4,1.1,1.1L254.7,85.2z"/>
	<path fill="#010101" d="M352.9,49.4V129h-1.3c-0.7,0-1.1-0.4-1.2-1.1l-0.3-9.7c-2.4,3.6-5.3,6.4-8.7,8.4c-3.4,2-7.1,3.1-11.2,3.1
		c-6.9,0-12.2-2.3-15.9-6.8c-3.7-4.6-5.6-11.5-5.6-20.9c0-4,0.5-7.7,1.5-11.1c1-3.4,2.5-6.4,4.5-8.9c2-2.5,4.5-4.5,7.4-6
		c3-1.5,6.4-2.2,10.3-2.2c3.9,0,7.3,0.7,10.1,2.2c2.8,1.5,5.3,3.7,7.4,6.7V49.4H352.9z M350,85.7c-2.3-3.5-4.8-6-7.5-7.4
		c-2.8-1.5-5.9-2.2-9.5-2.2c-3.6,0-6.7,0.7-9.3,2c-2.6,1.3-4.8,3.1-6.6,5.4c-1.8,2.3-3.1,5.1-4,8.2c-0.9,3.2-1.3,6.6-1.3,10.3
		c0,8.6,1.6,15,4.9,19.2c3.3,4.2,8,6.2,14.2,6.2c3.8,0,7.4-1,10.6-3.1c3.2-2.1,6.1-5,8.5-8.7V85.7z"/>
	<path fill="#010101" d="M413,74.7V129h-1.3c-0.7,0-1-0.4-1.2-1.1l-0.3-9.5c-2.6,3.5-5.6,6.3-9.1,8.3c-3.5,2.1-7.3,3.1-11.5,3.1
		c-3,0-5.6-0.5-7.9-1.4c-2.3-0.9-4.1-2.3-5.6-4c-1.5-1.7-2.6-3.9-3.4-6.4c-0.8-2.5-1.1-5.4-1.1-8.6V74.7h2.9v34.8
		c0,2.8,0.3,5.4,0.9,7.6c0.6,2.2,1.6,4.1,2.9,5.7c1.3,1.6,2.9,2.8,4.9,3.6s4.3,1.2,6.9,1.2c3.9,0,7.6-1,10.9-3.1
		c3.4-2.1,6.4-4.9,9-8.6V74.7H413z"/>
	<path fill="#010101" d="M435.1,89.2c0.8-2.5,1.8-4.6,2.9-6.6c1.1-1.9,2.4-3.5,3.8-4.8c1.5-1.3,3.1-2.3,4.9-3c1.8-0.7,3.9-1,6.2-1
		c1.1,0,2.2,0.1,3.3,0.2c1.1,0.2,2.1,0.5,3,1l-0.3,1.7c-0.1,0.4-0.4,0.6-0.8,0.6c-0.4,0-1-0.1-1.8-0.4c-0.8-0.3-2-0.4-3.7-0.4
		c-2.3,0-4.3,0.4-6.1,1.1c-1.8,0.7-3.4,1.8-4.7,3.2c-1.4,1.4-2.6,3.1-3.7,5.2c-1.1,2.1-2,4.5-2.9,7.3V129h-2.9V74.7h1.3
		c0.7,0,1.1,0.4,1.2,1.2L435.1,89.2z"/>
	<path fill="#010101" d="M487.9,73.8c3.9,0,7.3,0.7,10.3,2c3,1.3,5.5,3.2,7.6,5.7c2.1,2.4,3.6,5.4,4.7,8.8c1.1,3.5,1.6,7.3,1.6,11.5
		s-0.5,8.1-1.6,11.5c-1.1,3.4-2.6,6.4-4.7,8.8c-2.1,2.4-4.6,4.3-7.6,5.6c-3,1.3-6.4,2-10.3,2s-7.3-0.7-10.3-2
		c-3-1.3-5.5-3.2-7.6-5.6c-2.1-2.4-3.6-5.4-4.7-8.8s-1.6-7.3-1.6-11.5s0.5-8.1,1.6-11.5c1.1-3.5,2.6-6.4,4.7-8.8
		c2.1-2.4,4.6-4.3,7.6-5.7C480.6,74.5,484.1,73.8,487.9,73.8z M487.9,127.4c3.5,0,6.6-0.6,9.3-1.8c2.6-1.2,4.9-2.9,6.6-5.2
		c1.8-2.2,3.1-4.9,4-8c0.9-3.1,1.3-6.6,1.3-10.5c0-3.9-0.4-7.4-1.3-10.5c-0.9-3.2-2.2-5.9-4-8.1s-4-4-6.6-5.2
		c-2.6-1.2-5.7-1.8-9.3-1.8c-3.5,0-6.6,0.6-9.3,1.8c-2.6,1.2-4.9,3-6.6,5.2s-3.1,5-4,8.1c-0.9,3.2-1.3,6.7-1.3,10.5
		c0,3.9,0.4,7.3,1.3,10.5c0.9,3.1,2.2,5.8,4,8c1.8,2.2,4,4,6.6,5.2S484.4,127.4,487.9,127.4z"/>
	<path fill="#010101" d="M527.1,125.8c0-1.2,0.4-2.2,1.2-3c0.8-0.8,1.8-1.2,2.9-1.2c1.2,0,2.2,0.4,3,1.2s1.2,1.8,1.2,3
		s-0.4,2.2-1.2,2.9c-0.8,0.8-1.8,1.2-3,1.2c-1.2,0-2.2-0.4-2.9-1.2C527.5,127.9,527.1,126.9,527.1,125.8z"/>
	<path fill="#010101" d="M557.3,74.7v62.8c0,1.7-0.3,3.3-0.8,4.8c-0.5,1.5-1.3,2.7-2.3,3.8c-1,1.1-2.2,1.9-3.7,2.5
		c-1.5,0.6-3.1,0.9-5,0.9c-1,0-1.9-0.1-2.7-0.3c-0.8-0.2-1.5-0.5-2.2-0.9l0.3-1.4c0.1-0.3,0.3-0.5,0.4-0.5s0.4,0,0.8,0.1
		c0.3,0.1,0.7,0.2,1.2,0.4c0.5,0.1,1.1,0.2,1.8,0.2c3,0,5.3-0.9,6.9-2.6c1.5-1.8,2.3-4.1,2.3-7.1V74.7H557.3z M559.6,55.1
		c0,0.5-0.1,1-0.3,1.4c-0.2,0.4-0.5,0.8-0.9,1.2c-0.3,0.3-0.8,0.6-1.2,0.8c-0.5,0.2-0.9,0.3-1.4,0.3c-1,0-1.9-0.4-2.7-1.1
		c-0.8-0.8-1.1-1.6-1.1-2.6c0-1,0.4-1.9,1.1-2.7c0.8-0.8,1.6-1.1,2.7-1.1c0.5,0,0.9,0.1,1.4,0.3c0.5,0.2,0.9,0.5,1.2,0.8
		c0.3,0.3,0.6,0.8,0.9,1.2C559.5,54.1,559.6,54.6,559.6,55.1z"/>
	<path fill="#010101" d="M606.2,80.3c-0.2,0.3-0.5,0.5-0.8,0.5c-0.3,0-0.8-0.2-1.4-0.7c-0.6-0.5-1.4-1-2.5-1.6
		c-1.1-0.6-2.4-1.1-4-1.6c-1.6-0.5-3.6-0.7-5.9-0.7c-2.2,0-4.1,0.3-5.9,1c-1.8,0.6-3.3,1.5-4.6,2.6c-1.3,1.1-2.3,2.3-3,3.7
		c-0.7,1.4-1,2.9-1,4.5c0,1.8,0.4,3.4,1.3,4.6c0.9,1.2,2.1,2.3,3.6,3.2c1.5,0.9,3.1,1.6,5,2.2s3.8,1.2,5.7,1.8
		c1.9,0.6,3.9,1.3,5.7,2c1.9,0.7,3.5,1.6,5,2.6c1.5,1,2.7,2.3,3.6,3.8c0.9,1.5,1.4,3.4,1.4,5.6c0,2.3-0.4,4.4-1.2,6.4
		s-2,3.7-3.6,5.2c-1.6,1.5-3.5,2.7-5.7,3.5c-2.3,0.8-4.8,1.3-7.7,1.3c-1.9,0-3.7-0.2-5.3-0.5c-1.6-0.3-3-0.8-4.4-1.3
		c-1.4-0.6-2.6-1.3-3.8-2.1c-1.2-0.8-2.3-1.7-3.4-2.7l0.7-0.9c0.1-0.2,0.3-0.3,0.4-0.4c0.1-0.1,0.3-0.1,0.6-0.1
		c0.4,0,0.9,0.3,1.6,0.9c0.7,0.6,1.6,1.3,2.8,2c1.2,0.7,2.6,1.4,4.4,2c1.8,0.6,3.9,0.9,6.5,0.9c2.5,0,4.8-0.4,6.7-1.1
		c1.9-0.7,3.5-1.7,4.8-2.9c1.3-1.2,2.3-2.7,2.9-4.4c0.7-1.7,1-3.4,1-5.3c0-2-0.5-3.6-1.3-5c-0.9-1.3-2.1-2.4-3.6-3.3
		c-1.5-0.9-3.1-1.7-5-2.3c-1.9-0.6-3.8-1.2-5.7-1.8c-1.9-0.6-3.9-1.2-5.7-1.9c-1.9-0.7-3.5-1.5-5-2.5c-1.5-1-2.7-2.2-3.6-3.7
		c-0.9-1.5-1.3-3.3-1.3-5.5c0-1.8,0.4-3.6,1.2-5.3c0.8-1.7,2-3.2,3.5-4.5c1.5-1.3,3.3-2.3,5.4-3.1c2.1-0.8,4.5-1.2,7.1-1.2
		c3.2,0,6,0.4,8.4,1.3s4.7,2.3,6.9,4.2L606.2,80.3z"/>
</g>
<path fill="#231F20" d="M77.4,165.3l-53.8-31.1c-4.9-2.8-7.9-8-7.9-13.7V58.5c0-5.6,3-10.9,7.9-13.7l53.8-31.1
	c4.9-2.8,10.9-2.8,15.8,0l53.8,31.1c4.9,2.8,7.9,8,7.9,13.7v62.1c0,5.6-3,10.9-7.9,13.7l-53.8,31.1
	C88.3,168.1,82.2,168.1,77.4,165.3z"/>
<g>
	<path fill="#FFFFFF" d="M111.1,72.6c0,19.4-21,22.7-35.9,22.8c0.5,8.2,4.8,14.8,15.5,14.8c7.4,0,12.8-3.4,15.9-5.5l4.8,10.2
		c-2,1.8-10.3,7-22.1,7c-21.4,0-29.7-13.1-29.7-31.8c0-18.6,10.4-35,31.1-35C102.9,55.1,111.1,61.4,111.1,72.6z M89.7,65.8
		c-10.1,0-14.6,9.7-15,19c9.3-0.1,22.5-2.3,22.5-12C97.2,68.2,94.2,65.8,89.7,65.8z"/>
</g>
</svg>
