<?xml version="1.0" encoding="utf-8"?>
<!-- Generator: Adobe Illustrator 18.1.1, SVG Export Plug-In . SVG Version: 6.00 Build 0)  -->
<svg version="1.1" id="Layer_1" xmlns="http://www.w3.org/2000/svg" xmlns:xlink="http://www.w3.org/1999/xlink" x="0px" y="0px"
	 viewBox="0 0 595.3 172.9" enable-background="new 0 0 595.3 172.9" xml:space="preserve">
<g>
	<path fill="#010101" d="M222.2,115.8c-0.7,0.9-1.7,1.7-2.9,2.6c-1.2,0.9-2.6,1.6-4.3,2.2c-1.6,0.7-3.4,1.1-5.3,1.6
		c-1.9,0.4-3.8,0.6-5.8,0.6c-3.5,0-6.7-0.7-9.5-1.9c-2.8-1.2-5.2-3-7.3-5.3c-2-2.4-3.5-5.2-4.6-8.6c-1-3.4-1.6-7.3-1.6-11.6
		c0-3.8,0.5-7.2,1.5-10.3c1-3.1,2.6-5.8,4.4-8c2-2.3,4.3-4,7.1-5.3c2.8-1.2,6.1-1.9,9.5-1.9c2.7,0,5.4,0.5,7.8,1.4
		c2.5,0.9,4.5,2.4,6.3,4.3c1.8,1.9,3.2,4.3,4.3,7c1,2.7,1.5,6,1.5,9.5c0,0.8-0.3,1.1-0.9,1.1h-38.9c0,0.4-0.1,0.7-0.1,1
		c0,0.3,0,0.7,0,1c0,4.1,0.5,7.8,1.4,10.9c0.9,3.1,2.4,5.8,4.2,7.8c1.8,2.1,3.9,3.7,6.4,4.8c2.5,1.1,5.3,1.6,8.4,1.6
		c2.7,0,5.1-0.3,7.1-0.9c2-0.6,3.7-1.2,5-2c1.3-0.8,2.4-1.4,3.1-2c0.7-0.6,1.2-0.9,1.4-0.9c0.3,0,0.5,0.1,0.7,0.3L222.2,115.8z
		 M221.1,91.5c0-3.1-0.5-5.9-1.3-8.2c-0.9-2.5-2.1-4.4-3.7-6.1c-1.5-1.7-3.4-2.9-5.5-3.8c-2.1-0.9-4.4-1.3-6.9-1.3
		c-2.9,0-5.5,0.5-7.8,1.4s-4.3,2.3-6,4c-1.7,1.7-3,3.8-4.1,6.1c-1,2.4-1.7,5.1-2,8L221.1,91.5L221.1,91.5z"/>
	<path fill="#010101" d="M240.8,80.7c2.4-3.3,5.3-6,8.6-7.8c3.3-2,6.9-2.9,10.9-2.9c2.8,0,5.3,0.5,7.5,1.3c2.2,0.9,3.9,2.2,5.3,3.8
		c1.4,1.6,2.5,3.7,3.2,6.1c0.7,2.4,1,5.1,1,8.1v32.9h-2.7V89.4c0-2.6-0.3-5.1-0.9-7.2c-0.6-2.1-1.5-3.9-2.7-5.4
		c-1.2-1.5-2.7-2.6-4.6-3.4c-1.8-0.8-4-1.1-6.5-1.1c-3.8,0-7.2,0.9-10.4,2.9s-6,4.6-8.5,8.1v38.9h-2.7V70.9h1.3c0.7,0,1,0.4,1,1
		L240.8,80.7z"/>
	<path fill="#010101" d="M333.6,46.9v75.2h-1.2c-0.7,0-1-0.4-1.1-1l-0.3-9.2c-2.3,3.4-5,6.1-8.2,7.9c-3.2,1.8-6.7,2.9-10.6,2.9
		c-6.5,0-11.5-2.2-15-6.4c-3.5-4.3-5.3-10.9-5.3-19.8c0-3.8,0.5-7.3,1.4-10.5s2.4-6.1,4.3-8.4c1.9-2.4,4.3-4.3,7-5.7
		c2.8-1.4,6.1-2.1,9.7-2.1c3.7,0,6.9,0.7,9.5,2.1c2.6,1.4,5,3.5,7,6.3V46.9H333.6z M330.9,81.2c-2.2-3.3-4.5-5.7-7.1-7
		c-2.6-1.4-5.6-2.1-9-2.1c-3.4,0-6.3,0.7-8.8,1.9c-2.5,1.2-4.5,2.9-6.2,5.1s-2.9,4.8-3.8,7.8s-1.2,6.2-1.2,9.7
		c0,8.1,1.5,14.2,4.6,18.2c3.1,4,7.6,5.9,13.4,5.9c3.6,0,7-0.9,10-2.9c3-2,5.8-4.7,8-8.2L330.9,81.2L330.9,81.2z"/>
	<path fill="#010101" d="M390.4,70.8v51.3h-1.2c-0.7,0-0.9-0.4-1.1-1l-0.3-9c-2.5,3.3-5.3,6-8.6,7.8c-3.3,2-6.9,2.9-10.9,2.9
		c-2.8,0-5.3-0.5-7.5-1.3c-2.2-0.9-3.9-2.2-5.3-3.8c-1.4-1.6-2.5-3.7-3.2-6.1c-0.7-2.4-1-5.1-1-8.1V70.7h2.7v32.9
		c0,2.6,0.3,5.1,0.9,7.2c0.6,2.1,1.5,3.9,2.7,5.4c1.2,1.5,2.7,2.6,4.6,3.4c1.9,0.8,4.1,1.1,6.5,1.1c3.7,0,7.2-0.9,10.3-2.9
		c3.2-2,6.1-4.6,8.5-8.1V70.8H390.4z"/>
	<path fill="#010101" d="M411.3,84.5c0.8-2.4,1.7-4.3,2.7-6.2c1-1.8,2.3-3.3,3.6-4.5c1.4-1.2,2.9-2.2,4.6-2.8
		c1.7-0.6,3.7-0.9,5.9-0.9c1,0,2.1,0.1,3.1,0.2c1,0.2,2,0.5,2.8,0.9l-0.3,1.6c-0.1,0.4-0.4,0.6-0.8,0.6c-0.4,0-0.9-0.1-1.7-0.4
		s-1.9-0.4-3.5-0.4c-2.2,0-4.1,0.4-5.8,1c-1.7,0.7-3.2,1.7-4.4,3c-1.3,1.3-2.5,2.9-3.5,4.9c-1,2-1.9,4.3-2.7,6.9v33.7h-2.7V70.8h1.2
		c0.7,0,1,0.4,1.1,1.1L411.3,84.5z"/>
	<path fill="#010101" d="M461.2,70c3.7,0,6.9,0.7,9.7,1.9c2.8,1.2,5.2,3,7.2,5.4c2,2.3,3.4,5.1,4.4,8.3c1,3.3,1.5,6.9,1.5,10.9
		c0,4-0.5,7.7-1.5,10.9c-1,3.2-2.5,6.1-4.4,8.3c-2,2.3-4.3,4.1-7.2,5.3c-2.8,1.2-6.1,1.9-9.7,1.9c-3.7,0-6.9-0.7-9.7-1.9
		c-2.8-1.2-5.2-3-7.2-5.3c-2-2.3-3.4-5.1-4.4-8.3c-1-3.2-1.5-6.9-1.5-10.9c0-4,0.5-7.7,1.5-10.9c1-3.3,2.5-6.1,4.4-8.3
		c2-2.3,4.3-4.1,7.2-5.4C454.3,70.6,457.6,70,461.2,70z M461.2,120.6c3.3,0,6.2-0.6,8.8-1.7c2.5-1.1,4.6-2.7,6.2-4.9
		c1.7-2.1,2.9-4.6,3.8-7.6c0.9-2.9,1.2-6.2,1.2-9.9c0-3.7-0.4-7-1.2-9.9c-0.9-3-2.1-5.6-3.8-7.7s-3.8-3.8-6.2-4.9
		c-2.4-1.1-5.4-1.7-8.8-1.7c-3.3,0-6.2,0.6-8.8,1.7c-2.5,1.1-4.6,2.8-6.2,4.9s-2.9,4.7-3.8,7.7s-1.2,6.3-1.2,9.9
		c0,3.7,0.4,6.9,1.2,9.9c0.9,2.9,2.1,5.5,3.8,7.6s3.8,3.8,6.2,4.9C454.8,120,457.9,120.6,461.2,120.6z"/>
	<path fill="#010101" d="M498.3,119.1c0-1.1,0.4-2.1,1.1-2.8c0.8-0.8,1.7-1.1,2.7-1.1c1.1,0,2.1,0.4,2.8,1.1s1.1,1.7,1.1,2.8
		c0,1.1-0.4,2.1-1.1,2.7c-0.8,0.8-1.7,1.1-2.8,1.1c-1.1,0-2.1-0.4-2.7-1.1C498.7,121.1,498.3,120.2,498.3,119.1z"/>
	<path fill="#010101" d="M526.8,70.8v59.4c0,1.6-0.3,3.1-0.8,4.5c-0.5,1.4-1.2,2.6-2.2,3.6c-0.9,1-2.1,1.8-3.5,2.4
		c-1.4,0.6-2.9,0.9-4.7,0.9c-0.9,0-1.8-0.1-2.6-0.3c-0.8-0.2-1.4-0.5-2.1-0.9l0.3-1.3c0.1-0.3,0.3-0.5,0.4-0.5c0.1,0,0.4,0,0.8,0.1
		c0.3,0.1,0.7,0.2,1.1,0.4c0.5,0.1,1,0.2,1.7,0.2c2.8,0,5-0.9,6.5-2.5c1.4-1.7,2.2-3.9,2.2-6.7V70.8L526.8,70.8L526.8,70.8z
		 M529,52.3c0,0.5-0.1,0.9-0.3,1.3c-0.2,0.4-0.5,0.8-0.9,1.1c-0.3,0.3-0.8,0.6-1.1,0.8c-0.5,0.2-0.9,0.3-1.3,0.3
		c-0.9,0-1.8-0.4-2.6-1c-0.8-0.8-1-1.5-1-2.5c0-1,0.4-1.8,1-2.6c0.8-0.8,1.5-1,2.6-1c0.5,0,0.9,0.1,1.3,0.3c0.5,0.2,0.9,0.5,1.1,0.8
		c0.2,0.3,0.6,0.8,0.9,1.1C528.9,51.3,529,51.8,529,52.3z"/>
	<path fill="#010101" d="M573.1,76.1c-0.2,0.3-0.5,0.5-0.8,0.5s-0.8-0.2-1.3-0.7c-0.6-0.5-1.3-0.9-2.4-1.5c-1.1-0.6-2.3-1-3.8-1.5
		c-1.5-0.5-3.4-0.7-5.6-0.7c-2.1,0-3.9,0.3-5.6,0.9c-1.7,0.6-3.1,1.4-4.3,2.5c-1.2,1-2.2,2.2-2.8,3.5c-0.7,1.3-0.9,2.7-0.9,4.3
		c0,1.7,0.4,3.2,1.2,4.3c0.9,1.1,2,2.2,3.4,3c1.4,0.9,2.9,1.5,4.7,2.1s3.6,1.1,5.4,1.7c1.8,0.6,3.7,1.2,5.4,1.9
		c1.8,0.7,3.3,1.5,4.7,2.5c1.4,0.9,2.6,2.2,3.4,3.6c0.9,1.4,1.3,3.2,1.3,5.3c0,2.2-0.4,4.2-1.1,6.1c-0.8,1.9-1.9,3.5-3.4,4.9
		s-3.3,2.6-5.4,3.3c-2.2,0.8-4.5,1.2-7.3,1.2c-1.8,0-3.5-0.2-5-0.5c-1.5-0.3-2.8-0.8-4.2-1.2c-1.3-0.6-2.5-1.2-3.6-2
		c-1.1-0.8-2.2-1.6-3.2-2.6l0.7-0.9c0.1-0.2,0.3-0.3,0.4-0.4c0.1-0.1,0.3-0.1,0.6-0.1c0.4,0,0.9,0.3,1.5,0.9s1.5,1.2,2.6,1.9
		c1.1,0.7,2.5,1.3,4.2,1.9c1.7,0.6,3.7,0.9,6.1,0.9s4.5-0.4,6.3-1c1.8-0.6,3.3-1.6,4.5-2.7c1.2-1.1,2.2-2.6,2.7-4.2
		c0.7-1.6,0.9-3.2,0.9-5c0-1.9-0.5-3.4-1.2-4.7c-0.9-1.2-2-2.3-3.4-3.1c-1.4-0.8-2.9-1.6-4.7-2.2c-1.8-0.6-3.6-1.1-5.4-1.7
		c-1.8-0.6-3.7-1.1-5.4-1.8c-1.8-0.7-3.3-1.4-4.7-2.4c-1.4-0.9-2.6-2.1-3.4-3.5c-0.9-1.4-1.2-3.1-1.2-5.2c0-1.7,0.4-3.4,1.1-5
		c0.8-1.6,1.9-3,3.3-4.3c1.4-1.3,3.1-2.2,5.1-2.9c2-0.8,4.3-1.1,6.7-1.1c3,0,5.7,0.4,7.9,1.2c2.3,0.9,4.4,2.2,6.5,4L573.1,76.1z"/>
</g>
<path fill="#231F20" d="M73.2,156.5l-50.9-29.4c-4.6-2.6-7.5-7.6-7.5-13V55.5c0-5.3,2.8-10.3,7.5-13l50.9-29.4
	c4.6-2.6,10.3-2.6,14.9,0L139,42.5c4.6,2.6,7.5,7.6,7.5,13v58.7c0,5.3-2.8,10.3-7.5,13l-50.9,29.4C83.5,159.1,77.7,159.1,73.2,156.5
	z"/>
<g>
	<path fill="#FFFFFF" d="M105,68.8c0,18.3-19.9,21.5-33.9,21.6c0.5,7.8,4.5,14,14.7,14c7,0,12.1-3.2,15-5.2l4.5,9.6
		c-1.9,1.7-9.7,6.6-20.9,6.6c-20.2,0-28.1-12.4-28.1-30.1c0-17.6,9.8-33.1,29.4-33.1C97.3,52.3,105,58.2,105,68.8z M84.8,62.4
		c-9.5,0-13.8,9.2-14.2,18c8.8-0.1,21.3-2.2,21.3-11.3C91.9,64.7,89.1,62.4,84.8,62.4z"/>
</g>
</svg>
